<svg width="88" height="80" viewBox="0 0 88 80" fill="none" xmlns="http://www.w3.org/2000/svg">
<path d="M2 6.46623e-05C0.895401 6.46623e-05 0 0.895495 0 2.00006C0 3.10463 0.895401 4.00006 2 4.00006H12.375L22.9062 53.75C23.1617 54.9791 23.9827 56.013 25 56H75C76.0566 56.015 77.0285 55.0568 77.0285 54C77.0285 52.9433 76.0566 51.9851 75 52H26.625L24.9375 44H79C79.8955 43.99 80.7416 43.3113 80.9375 42.4375L87.9375 12.4376C88.1976 11.2768 87.1895 10.0086 86 10.0001H17.75L15.9688 1.56256C15.7706 0.678585 14.9059 -0.00766534 14 6.46623e-05H2ZM18.5938 14.0001H36.3125L38.1562 25.0001H20.9375L18.5938 14.0001ZM40.3438 14.0001H61.6562L59.8125 25.0001H42.1875L40.3438 14.0001ZM65.6875 14.0001H83.5L80.9375 25.0001H63.8438L65.6875 14.0001ZM21.7812 29.0001H38.8125L40.6562 40H24.0938L21.7812 29.0001ZM42.875 29.0001H59.125L57.3125 40H44.6875L42.875 29.0001ZM63.1875 29.0001H80L77.4062 40H61.3438L63.1875 29.0001ZM35 62C30.0532 62 26 66.0531 26 71C26 75.9469 30.0532 80 35 80C39.9469 80 44 75.9469 44 71C44 66.0532 39.9469 62 35 62ZM65 62C60.0532 62 56 66.0531 56 71C56 75.9469 60.0532 80 65 80C69.9469 80 74 75.9469 74 71C74 66.0532 69.9469 62 65 62ZM35 66C37.7851 66 40 68.2149 40 71C40 73.7852 37.7851 76 35 76C32.215 76 30 73.7851 30 71C30 68.215 32.215 66 35 66ZM65 66C67.7851 66 70 68.2149 70 71C70 73.7852 67.7851 76 65 76C62.215 76 60 73.7851 60 71C60 68.215 62.215 66 65 66Z" fill="white"/>
</svg>
